<svg xmlns="http://www.w3.org/2000/svg" xmlns:xlink="http://www.w3.org/1999/xlink" width="278.461" height="93.291" viewBox="0 0 278.461 93.291">
  <defs>
    <clipPath id="clip-path">
      <rect id="Rectangle_1481" data-name="Rectangle 1481" width="24.548" height="19.893" fill="none"/>
    </clipPath>
    <clipPath id="clip-path-3">
      <rect id="Rectangle_1496" data-name="Rectangle 1496" width="10.785" height="11.592" fill="none"/>
    </clipPath>
    <clipPath id="clip-path-4">
      <rect id="Rectangle_1497" data-name="Rectangle 1497" width="7.527" height="6.266" fill="none"/>
    </clipPath>
    <clipPath id="clip-path-5">
      <rect id="Rectangle_1401" data-name="Rectangle 1401" width="76.313" height="79.128" fill="none"/>
    </clipPath>
    <clipPath id="clip-path-7">
      <rect id="Rectangle_1398" data-name="Rectangle 1398" width="9.65" height="19.462" fill="none"/>
    </clipPath>
    <clipPath id="clip-path-8">
      <rect id="Rectangle_1502" data-name="Rectangle 1502" width="29.063" height="0.315" fill="none"/>
    </clipPath>
  </defs>
  <g id="Group_9942" data-name="Group 9942" transform="translate(-2685 160)">
    <path id="Path_7562" data-name="Path 7562" d="M103.411,21.033c-10.583.6-31.028,30.607-53.672,52.877C31.154,92.19,8.786,103.569,8.786,103.569h265s-24.731-5.306-67.174-23.618c-47.636-20.552-93.015-59.5-103.2-58.918" transform="translate(2679.976 -170.974)" fill="#fff" opacity="0.3"/>
    <path id="Path_7563" data-name="Path 7563" d="M461.352,31.552A4.259,4.259,0,1,1,457.1,27a4.41,4.41,0,0,1,4.249,4.554" transform="translate(2426.062 -162.893)" fill="#c1c5ef"/>
    <rect id="Rectangle_1474" data-name="Rectangle 1474" width="278.461" height="93.083" transform="translate(2685 -160)" fill="none"/>
    <path id="Path_7566" data-name="Path 7566" d="M252.287,79.488a8.5,8.5,0,0,0-2.373-2.44,13.06,13.06,0,0,0,1.421-6.084c0-4.436-1.976-8.182-4.685-9.389a28.354,28.354,0,0,0,.553-5.63c0-8.6-3.651-15.566-8.154-15.566s-8.154,6.969-8.154,15.566c0,.455.012.9.033,1.35-3.412,1.812-5.853,6.661-5.853,12.362a18.537,18.537,0,0,0,.877,5.712,8.482,8.482,0,0,0-1.9,2.659c-2.3,5.09.853,11.479,7.037,14.272.106.048.212.091.318.136.054.093.107.186.165.277,3.005,4.707,10.078,5.562,15.8,1.91s7.92-10.427,4.915-15.134" transform="translate(2564.172 -170.134)" fill="#7fc08a"/>
    <path id="Path_7567" data-name="Path 7567" d="M255.238,64.664s-2.036,30.376-.121,50.788" transform="translate(2547.402 -183.274)" fill="none" stroke="#7c2338" stroke-linecap="round" stroke-linejoin="round" stroke-width="1.928"/>
    <path id="Path_7568" data-name="Path 7568" d="M254.58,140.358a24.222,24.222,0,0,1,8.177-7.583" transform="translate(2547.249 -220.128)" fill="none" stroke="#7c2338" stroke-linecap="round" stroke-linejoin="round" stroke-width="1.928"/>
    <path id="Path_7569" data-name="Path 7569" d="M254.58,104.728a22.147,22.147,0,0,1,4.088-4.649" transform="translate(2547.249 -202.437)" fill="none" stroke="#7c2338" stroke-linecap="round" stroke-linejoin="round" stroke-width="1.928"/>
    <path id="Path_7570" data-name="Path 7570" d="M247.475,114.795s-3.042-5.343-5.8-7.769" transform="translate(2554.23 -206.196)" fill="none" stroke="#7c2338" stroke-linecap="round" stroke-linejoin="round" stroke-width="1.928"/>
    <rect id="Rectangle_1475" data-name="Rectangle 1475" width="70.296" height="32.889" transform="translate(2845.961 -100.294)" fill="#ffb070"/>
    <path id="Path_7571" data-name="Path 7571" d="M433.247,117.4h-5.181a.423.423,0,0,1-.423-.423V115.6a.423.423,0,0,1,.423-.423h5.181a.423.423,0,0,1,.423.423v1.374a.423.423,0,0,1-.423.423" transform="translate(2453.605 -210.606)" fill="#ff8d5a"/>
    <path id="Path_7572" data-name="Path 7572" d="M490.686,117.4h-5.181a.423.423,0,0,1-.423-.423V115.6a.423.423,0,0,1,.423-.423h5.181a.423.423,0,0,1,.423.423v1.374a.423.423,0,0,1-.423.423" transform="translate(2422.525 -210.606)" fill="#ff8d5a"/>
    <path id="Path_7573" data-name="Path 7573" d="M426.68,123.512H421.5a.423.423,0,0,1-.423-.423v-1.374a.423.423,0,0,1,.423-.423h5.181a.423.423,0,0,1,.423.423v1.374a.423.423,0,0,1-.423.423" transform="translate(2457.159 -213.915)" fill="#ff8d5a"/>
    <rect id="Rectangle_1476" data-name="Rectangle 1476" width="70.296" height="1.553" transform="translate(2845.961 -100.294)" fill="#ff8d5a"/>
    <rect id="Rectangle_1477" data-name="Rectangle 1477" width="29.452" height="32.889" transform="translate(2845.961 -100.294)" fill="#ff8d5a"/>
    <path id="Path_7574" data-name="Path 7574" d="M350.748,65.6h55.587l18.578,17.888H350.748Z" transform="translate(2495.212 -183.779)" fill="#7c2338"/>
    <path id="Path_7575" data-name="Path 7575" d="M311.331,82.729H266.443v-66.9l21.183-12.22,23.705,12.22Z" transform="translate(2540.829 -150.24)" fill="#ffb070"/>
    <path id="Path_7576" data-name="Path 7576" d="M301.68,94.652h-6.339a.518.518,0,0,1-.518-.518V92.454a.518.518,0,0,1,.518-.518h6.339a.518.518,0,0,1,.518.518v1.681a.518.518,0,0,1-.518.518" transform="translate(2525.473 -198.031)" fill="#ff8d5a"/>
    <path id="Path_7577" data-name="Path 7577" d="M276.611,91.692h-6.339a.518.518,0,0,1-.518-.518V89.494a.518.518,0,0,1,.518-.518h6.339a.518.518,0,0,1,.518.518v1.681a.518.518,0,0,1-.518.518" transform="translate(2539.038 -196.429)" fill="#ff8d5a"/>
    <path id="Path_7578" data-name="Path 7578" d="M293.646,102.134h-6.339a.518.518,0,0,1-.518-.518V99.936a.518.518,0,0,1,.518-.518h6.339a.518.518,0,0,1,.518.518v1.681a.518.518,0,0,1-.518.518" transform="translate(2529.82 -202.079)" fill="#ff8d5a"/>
    <path id="Path_7579" data-name="Path 7579" d="M267.045,16.077v3.551L288.27,7.385l23.664,12.2V16.1L288.208,3.868Z" transform="translate(2540.504 -150.378)" fill="#ff8d5a"/>
    <rect id="Rectangle_1478" data-name="Rectangle 1478" width="28.739" height="2.351" transform="translate(2815.623 -76.385)" fill="#ff8d5a"/>
    <rect id="Rectangle_1479" data-name="Rectangle 1479" width="25.917" height="21.328" transform="translate(2817.191 -97.272)" fill="#ffecc5"/>
    <rect id="Rectangle_1480" data-name="Rectangle 1480" width="24.547" height="19.893" transform="translate(2817.876 -96.555)" fill="#3f9aff"/>
    <g id="Group_9742" data-name="Group 9742" transform="translate(2817.875 -96.555)" opacity="0.24">
      <g id="Group_9741" data-name="Group 9741">
        <g id="Group_9740" data-name="Group 9740" clip-path="url(#clip-path)">
          <path id="Path_7580" data-name="Path 7580" d="M299.485,129.318c1.527,1.146,3.09,2.241,4.678,3.3h3.978c-.832-.723-1.662-1.448-2.482-2.185a43.14,43.14,0,0,1-8.173-9.166c-.232-.376-.962-1.133-.6-1.619.27-.36.969-.189,1.315-.144a10.961,10.961,0,0,1,4.632,1.952c3.311,2.229,6.043,5.146,9.432,7.292q.9.57,1.828,1.1v-6.336l-.124-.083c-3.944-2.612-8.051-4.965-12.028-7.523-1.577-1.014-3.118-2.084-4.646-3.177h-7.75v7.736a71.622,71.622,0,0,0,9.937,8.857" transform="translate(-289.548 -112.725)" fill="#c4d9ff"/>
        </g>
      </g>
    </g>
    <rect id="Rectangle_1482" data-name="Rectangle 1482" width="0.604" height="20.945" transform="translate(2825.454 -96.89)" fill="#ffecc5"/>
    <rect id="Rectangle_1483" data-name="Rectangle 1483" width="0.604" height="20.945" transform="translate(2834.241 -96.89)" fill="#ffecc5"/>
    <rect id="Rectangle_1484" data-name="Rectangle 1484" width="25.2" height="0.528" transform="translate(2817.557 -91.142)" fill="#ffecc5"/>
    <rect id="Rectangle_1485" data-name="Rectangle 1485" width="25.2" height="0.528" transform="translate(2817.557 -82.924)" fill="#ffecc5"/>
    <rect id="Rectangle_1486" data-name="Rectangle 1486" width="28.739" height="2.351" transform="translate(2815.623 -77.12)" fill="#9b3448"/>
    <rect id="Rectangle_1487" data-name="Rectangle 1487" width="25.917" height="21.328" transform="translate(2817.191 -133.925)" fill="#ffecc5"/>
    <rect id="Rectangle_1488" data-name="Rectangle 1488" width="28.739" height="2.351" transform="translate(2815.623 -113.176)" fill="#ff8d5a"/>
    <rect id="Rectangle_1489" data-name="Rectangle 1489" width="24.547" height="19.893" transform="translate(2817.876 -133.207)" fill="#3f9aff"/>
    <g id="Group_9745" data-name="Group 9745" transform="translate(2817.875 -133.207)" opacity="0.24">
      <g id="Group_9744" data-name="Group 9744">
        <g id="Group_9743" data-name="Group 9743" clip-path="url(#clip-path)">
          <path id="Path_7581" data-name="Path 7581" d="M300.145,42.933a.233.233,0,0,1,.337-.259c3.841,1.795,6.882,5.059,10.169,7.657a32.382,32.382,0,0,0,3.426,2.416h.018V45.6q-1.324-.925-2.67-1.816c-4.431-2.945-8.778-6.011-13.073-9.152q-1.209-.884-2.413-1.773h-6.391v8.093c1.077,1.147,2.165,2.284,3.237,3.434a64.319,64.319,0,0,1,6.907,8.365h4.846a27.045,27.045,0,0,1-4.393-9.814" transform="translate(-289.548 -32.855)" fill="#c4d9ff"/>
        </g>
      </g>
    </g>
    <rect id="Rectangle_1491" data-name="Rectangle 1491" width="0.604" height="20.945" transform="translate(2825.454 -133.542)" fill="#ffecc5"/>
    <rect id="Rectangle_1492" data-name="Rectangle 1492" width="0.604" height="20.945" transform="translate(2834.241 -133.542)" fill="#ffecc5"/>
    <rect id="Rectangle_1493" data-name="Rectangle 1493" width="25.2" height="0.528" transform="translate(2817.557 -127.795)" fill="#ffecc5"/>
    <rect id="Rectangle_1494" data-name="Rectangle 1494" width="25.2" height="0.528" transform="translate(2817.557 -119.576)" fill="#ffecc5"/>
    <rect id="Rectangle_1495" data-name="Rectangle 1495" width="28.739" height="2.351" transform="translate(2815.623 -113.773)" fill="#9b3448"/>
    <path id="Path_7582" data-name="Path 7582" d="M345.7,54.463v51.789h8.791V46.889Z" transform="translate(2497.943 -173.656)" fill="#ff8d5a"/>
    <path id="Path_7583" data-name="Path 7583" d="M377.283,103.238H348.035V53.54l14.624-12.22,14.624,12.22Z" transform="translate(2496.681 -170.643)" fill="#ffc578"/>
    <path id="Path_7584" data-name="Path 7584" d="M359.612,142.229h-5.181a.423.423,0,0,1-.423-.423v-1.374a.423.423,0,0,1,.423-.423h5.181a.423.423,0,0,1,.423.423v1.374a.423.423,0,0,1-.423.423" transform="translate(2493.449 -224.043)" fill="#ffb070"/>
    <path id="Path_7585" data-name="Path 7585" d="M359.612,89.615h-5.181a.423.423,0,0,1-.423-.423V87.818a.423.423,0,0,1,.423-.423h5.181a.423.423,0,0,1,.423.423v1.374a.423.423,0,0,1-.423.423" transform="translate(2493.449 -195.574)" fill="#ffb070"/>
    <path id="Path_7586" data-name="Path 7586" d="M368,98.437h-5.181a.423.423,0,0,1-.423-.423V96.64a.423.423,0,0,1,.423-.423H368a.423.423,0,0,1,.423.423v1.374a.423.423,0,0,1-.423.423" transform="translate(2488.912 -200.347)" fill="#ffb070"/>
    <path id="Path_7587" data-name="Path 7587" d="M407.422,100.584h-3.169a.518.518,0,0,0-.518.518v1.681a.518.518,0,0,0,.518.518h3.169Z" transform="translate(2466.542 -202.71)" fill="#ffb070"/>
    <path id="Path_7588" data-name="Path 7588" d="M361.344,41.455,348.035,52.576v4.036l14.624-12.22,14.624,12.22V52.576l-14.624-12.22Z" transform="translate(2496.681 -170.121)" fill="#ff8d5a"/>
    <path id="Path_7589" data-name="Path 7589" d="M378.494,77.136a7.864,7.864,0,1,1-7.864-7.864,7.864,7.864,0,0,1,7.864,7.864" transform="translate(2488.71 -185.767)" fill="#ffb070"/>
    <path id="Path_7590" data-name="Path 7590" d="M378.494,75.815a7.864,7.864,0,1,1-7.864-7.864,7.864,7.864,0,0,1,7.864,7.864" transform="translate(2488.71 -185.053)" fill="#ffecc5"/>
    <path id="Path_7591" data-name="Path 7591" d="M378.73,77.366a6.549,6.549,0,1,1-6.549-6.549,6.549,6.549,0,0,1,6.549,6.549" transform="translate(2487.159 -186.603)" fill="#3f9aff"/>
    <g id="Group_9748" data-name="Group 9748" transform="translate(2854.149 -115.199)" opacity="0.24">
      <g id="Group_9747" data-name="Group 9747">
        <g id="Group_9746" data-name="Group 9746" clip-path="url(#clip-path-3)">
          <path id="Path_7592" data-name="Path 7592" d="M377.114,83.689a6.576,6.576,0,0,0,2.262-2.239,52.105,52.105,0,0,1-4.343-3.8,23.151,23.151,0,0,1-3.952-5.551,6.568,6.568,0,0,0-2.49,1.979,22.433,22.433,0,0,0,8.523,9.612" transform="translate(-368.591 -72.097)" fill="#c4d9ff"/>
        </g>
      </g>
    </g>
    <g id="Group_9751" data-name="Group 9751" transform="translate(2858.347 -115.787)" opacity="0.24">
      <g id="Group_9750" data-name="Group 9750">
        <g id="Group_9749" data-name="Group 9749" clip-path="url(#clip-path-4)">
          <path id="Path_7593" data-name="Path 7593" d="M380.4,73.627a20.256,20.256,0,0,0,4.869,3.456,6.561,6.561,0,0,0-.271-1.63c-.158-.1-.317-.207-.471-.316a18.864,18.864,0,0,1-4.137-4.1,6.215,6.215,0,0,0-2.648-.136c.85.953,1.743,1.865,2.658,2.727" transform="translate(-377.739 -70.817)" fill="#c4d9ff"/>
        </g>
      </g>
    </g>
    <rect id="Rectangle_1498" data-name="Rectangle 1498" width="0.68" height="14.565" transform="translate(2859 -116.496)" fill="#ffecc5"/>
    <rect id="Rectangle_1499" data-name="Rectangle 1499" width="14.565" height="0.68" transform="translate(2852.058 -109.553)" fill="#ffecc5"/>
    <path id="Path_7594" data-name="Path 7594" d="M256.72,18.022l-1.548-2.682L281.762,0l28.572,14.728-1.419,2.753L281.846,3.528Z" transform="translate(2546.928 -148.285)" fill="#9b3448"/>
    <path id="Path_7595" data-name="Path 7595" d="M374.533,55.087,357.623,40.958,340.714,55.087l-1.986-2.377,18.9-15.789,18.9,15.789Z" transform="translate(2501.717 -168.262)" fill="#9b3448"/>
    <rect id="Rectangle_1500" data-name="Rectangle 1500" width="30.9" height="21.242" transform="translate(2879.721 -88.647)" fill="#9b3448"/>
    <rect id="Rectangle_1501" data-name="Rectangle 1501" width="29.063" height="20.381" transform="translate(2880.64 -87.786)" fill="#ff8d5a"/>
    <path id="Path_7603" data-name="Path 7603" d="M371.5,115.177h0a7.5,7.5,0,0,0-7.5,7.5v19.691h15V122.677a7.5,7.5,0,0,0-7.5-7.5" transform="translate(2488.043 -210.606)" fill="#ff8d5a"/>
    <path id="Path_7604" data-name="Path 7604" d="M372.417,117.2h0a6.721,6.721,0,0,0-6.722,6.722v19.541h13.443V123.924a6.722,6.722,0,0,0-6.722-6.722" transform="translate(2487.125 -211.702)" fill="#ffecc5"/>
    <path id="Path_7605" data-name="Path 7605" d="M379.406,124.435a5.228,5.228,0,0,0-10.447,0Z" transform="translate(2485.359 -212.907)" fill="#ffc578"/>
    <path id="Path_7606" data-name="Path 7606" d="M379.556,124.521a4.4,4.4,0,0,0-8.777,0Z" transform="translate(2484.374 -213.472)" fill="#3f9aff"/>
    <rect id="Rectangle_1509" data-name="Rectangle 1509" width="0.532" height="4.622" transform="translate(2859.275 -93.286)" fill="#ffc578"/>
    <rect id="Rectangle_1510" data-name="Rectangle 1510" width="0.532" height="4.622" transform="translate(2856.019 -91.741) rotate(-45)" fill="#ffc578"/>
    <rect id="Rectangle_1511" data-name="Rectangle 1511" width="4.622" height="0.532" transform="translate(2859.34 -88.849) rotate(-44.999)" fill="#ffc578"/>
    <path id="Path_7607" data-name="Path 7607" d="M390.532,148.526a.662.662,0,1,1-.662-.662.662.662,0,0,1,.662.662" transform="translate(2474.402 -228.293)" fill="#9b3448"/>
    <rect id="Rectangle_1512" data-name="Rectangle 1512" width="23.086" height="1.667" transform="translate(2848.041 -69.071)" fill="#9b3448"/>
    <g id="Group_9778" data-name="Group 9778" transform="translate(2530 -273.709)">
      <path id="Path_7608" data-name="Path 7608" d="M514.827,75.564a6.879,6.879,0,0,0-2.012-1.875,9.276,9.276,0,0,0,1.2-4.674c0-3.407-1.675-6.285-3.972-7.212a19.781,19.781,0,0,0,.468-4.325c0-6.6-3.095-11.957-6.913-11.957s-6.913,5.354-6.913,11.957c0,.35.011.695.028,1.037-2.892,1.392-4.962,5.117-4.962,9.5A13.014,13.014,0,0,0,492.5,72.4a6.573,6.573,0,0,0-1.607,2.043c-1.948,3.909.723,8.818,5.966,10.963.09.037.18.07.27.1.046.071.09.143.14.212,2.548,3.615,8.544,4.272,13.393,1.467s6.714-8.01,4.166-11.625" transform="translate(-110.274 100.792)" fill="#50a16a"/>
      <path id="Path_7609" data-name="Path 7609" d="M517.33,64.178s-1.723,34.683-.1,50.363" transform="translate(-124.493 90.698)" fill="none" stroke="#7c2338" stroke-linecap="round" stroke-linejoin="round" stroke-width="1.556"/>
      <path id="Path_7610" data-name="Path 7610" d="M516.771,122.322A19.714,19.714,0,0,1,523.7,116.5" transform="translate(-124.621 62.388)" fill="none" stroke="#7c2338" stroke-linecap="round" stroke-linejoin="round" stroke-width="1.556"/>
      <path id="Path_7611" data-name="Path 7611" d="M516.771,94.952a17.568,17.568,0,0,1,3.466-3.571" transform="translate(-124.621 75.978)" fill="none" stroke="#7c2338" stroke-linecap="round" stroke-linejoin="round" stroke-width="1.556"/>
      <path id="Path_7612" data-name="Path 7612" d="M510.747,102.686a29.767,29.767,0,0,0-4.915-5.968" transform="translate(-118.702 73.09)" fill="none" stroke="#7c2338" stroke-linecap="round" stroke-linejoin="round" stroke-width="1.556"/>
      <path id="Path_7613" data-name="Path 7613" d="M521.962,165.755c-.271-1.965-1.62-3.459-3.248-3.459a2.738,2.738,0,0,0-1.478.447c-1.055-3.294-3.6-5.62-6.579-5.62a5.965,5.965,0,0,0-3.524,1.192,4.24,4.24,0,0,0-3.111-1.457c-2.489,0-4.535,2.4-4.774,5.475a2.623,2.623,0,0,0-.418-.037c-1.628,0-2.978,1.495-3.248,3.459Z" transform="translate(-113.156 40.549)" fill="#7fc08a"/>
    </g>
    <path id="Path_7614" data-name="Path 7614" d="M253.985,165.755c-.271-1.965-1.62-3.459-3.248-3.459a2.738,2.738,0,0,0-1.478.447c-1.055-3.294-3.6-5.62-6.579-5.62a5.966,5.966,0,0,0-3.524,1.192,4.24,4.24,0,0,0-3.111-1.457c-2.489,0-4.535,2.4-4.774,5.475a2.622,2.622,0,0,0-.418-.037c-1.628,0-2.978,1.495-3.248,3.459Z" transform="translate(2561.844 -233.16)" fill="#50a16a"/>
    <path id="Path_7616" data-name="Path 7616" d="M0,0H278.461V81.368H0Z" transform="translate(2685 -148.285)" fill="none"/>
    <g id="Group_9634" data-name="Group 9634" transform="translate(2712.766 -146.166)">
      <g id="Group_9633" data-name="Group 9633" clip-path="url(#clip-path-5)">
        <g id="Group_9632" data-name="Group 9632">
          <g id="Group_9631" data-name="Group 9631" clip-path="url(#clip-path-5)">
            <path id="Path_7285" data-name="Path 7285" d="M19.2,618.859l-.3.8a1.722,1.722,0,0,1-.743,2.608s-.814.354-.983-.223-.006-.366-.266-1.176a1.539,1.539,0,0,1,.523-1.9l.407-.543Z" transform="translate(-15.76 -580.538)" fill="#ab7041"/>
            <path id="Path_7286" data-name="Path 7286" d="M85.2,133.581a19.751,19.751,0,0,0,.093-2.828l-3.613-2.483a6.845,6.845,0,0,1-1.864,5.76s4.706,1.886,7.264.859a6.3,6.3,0,0,0-1.881-1.308" transform="translate(-74.929 -120.412)" fill="#9c5f33"/>
            <path id="Path_7287" data-name="Path 7287" d="M96.889,58.859S92.614,59.909,92,57.237s-1.577-4.336,1.126-5.12,3.469.114,3.891.956.967,5.444-.129,5.786" transform="translate(-85.725 -48.642)" fill="#ab7041"/>
            <path id="Path_7288" data-name="Path 7288" d="M75.32,31.3a4.869,4.869,0,0,1,4.107-4.663c2.883-.686,1-2.791.651-3.119,0,0-2.2.615-4.446,1.305-4.716,1.449-.845,5.983-.312,6.477" transform="translate(-68.828 -22.08)" fill="#2b295e"/>
            <path id="Path_7289" data-name="Path 7289" d="M101.52,1257.964l.6,1.948,5.857-.037s-1.515-2.623-6.459-1.911" transform="translate(-95.301 -1180.785)" fill="#221e50"/>
            <path id="Path_7290" data-name="Path 7290" d="M87.3,617.646s1.623,27.2-1.286,39.631l-5.5.042s-1.727-36.882-.96-39.356Z" transform="translate(-74.495 -579.808)" fill="#2b295e"/>
            <path id="Path_7291" data-name="Path 7291" d="M372.173,1257.878l.59,1.953h5.857s-1.5-2.634-6.447-1.953" transform="translate(-349.373 -1180.713)" fill="#221e50"/>
            <path id="Path_7292" data-name="Path 7292" d="M82.562,622.827A157.8,157.8,0,0,0,87.5,639.749c2.86,8.014,8.172,17.812,12.458,22.433l4.764-.22s-8.626-36.082-9.775-38.687Z" transform="translate(-77.504 -584.672)" fill="#333380"/>
            <path id="Path_7293" data-name="Path 7293" d="M217.8,700.905c-.68-3.51-1.669-7.61-2.907-11.815-.189-.643-.388-1.3-.59-1.962-.223-.727-.454-1.461-.685-2.183a3.456,3.456,0,0,0-.41-.758,3.343,3.343,0,0,1-.378-.688c-.9-2.738-1.839-5.2-2.668-7.379q-.326-.856-.637-1.677c-1.866-4.954-2.907-7.767-2.915-7.795.009.028.885,2.884,2.754,7.844q.31.823.637,1.678c.829,2.173,1.768,4.637,2.665,7.37a3.472,3.472,0,0,0,.4.736,3.325,3.325,0,0,1,.387.71c.231.721.461,1.455.684,2.181.2.658.4,1.318.589,1.96,1.236,4.2,2.349,8.3,3.028,11.8Z" transform="translate(-193.952 -625.806)" fill="#2b295e"/>
            <path id="Path_7294" data-name="Path 7294" d="M218.095,641.263a4.664,4.664,0,0,0,3.959-2.017l-.127-.074a5.074,5.074,0,0,1-3.932,2.09h.1" transform="translate(-204.64 -600.015)" fill="#221e50"/>
            <path id="Path_7295" data-name="Path 7295" d="M1.887,255.018a7.433,7.433,0,0,0,1.675-.311s.579-7.848.72-8.586,4.911-10.235,4.911-10.235L4.7,229.592S.5,243.462.1,245.323s.586,9.5.586,9.5a3.12,3.12,0,0,0,1.2.2" transform="translate(0 -215.527)" fill="#cc7630"/>
            <path id="Path_7296" data-name="Path 7296" d="M69.211,229.12a.447.447,0,0,1-.143.3l-.005,0a.444.444,0,0,1-.267.112,61.711,61.711,0,0,1-12.188-.462.6.6,0,0,1-.51-.567c-.064-1.426-.3-5.807-.989-10.912-.84-6.242-.228-12.2,2.073-14.211a4.261,4.261,0,0,1,2.366.4,4.653,4.653,0,0,0,2.9.476c.006,0,.955.736.964.736a10.793,10.793,0,0,1,3.186,4.307c.987,2.287,1.2,6.077,1.283,9.342.005.21.01.418.014.623.024,1.193.034,2.295.063,3.2,0,.005,0,.01,0,.015a17.633,17.633,0,0,0,1.216,6.43.456.456,0,0,1,.036.134.525.525,0,0,1,0,.068" transform="translate(-51.395 -190.873)" fill="#da8b39"/>
            <g id="Group_9630" data-name="Group 9630" transform="translate(8.166 19.226)" opacity="0.6">
              <g id="Group_9629" data-name="Group 9629">
                <g id="Group_9628" data-name="Group 9628" clip-path="url(#clip-path-7)">
                  <path id="Path_7297" data-name="Path 7297" d="M142.944,332.854a.492.492,0,0,1-.118.3l-.031,0c-3.449.486-5.135-.336-7.392-2.826-1.515-1.67-2.036-9.354-2.109-13.811-.036-2.245,2.118-3.521,3.536-2.083a26.544,26.544,0,0,1,4.783,7.945c.005.21.01.418.014.623.023,1.193.034,2.295.063,3.2,0,.005,0,.01,0,.015a17.633,17.633,0,0,0,1.216,6.43.456.456,0,0,1,.036.134.534.534,0,0,1,0,.068" transform="translate(-133.295 -313.833)" fill="#cc7630"/>
                </g>
              </g>
            </g>
            <path id="Path_7298" data-name="Path 7298" d="M473.671,515.721l1.167.255a3.006,3.006,0,0,1,3.739.58s.674.8-.075,1.007-.5.03-1.547.345a2.826,2.826,0,0,1-2.724-.4l-.837-.376Z" transform="translate(-444.393 -483.98)" fill="#ab7041"/>
            <path id="Path_7299" data-name="Path 7299" d="M143.643,240.889l-.1.916-.1.97s-9.7-.452-11.406-1.264c0,0-10.511-7.92-10.917-13.457-.367-5.007,1.826-5.258,1.826-5.258s2.874-.939,11.15,14.511a57.1,57.1,0,0,1,9.545,3.583" transform="translate(-113.662 -209.136)" fill="#da8b39"/>
            <path id="Path_7300" data-name="Path 7300" d="M858.6,1254.781l-.655,2.106h-6.5s1.662-2.84,7.152-2.106" transform="translate(-799.292 -1177.797)" fill="#221e50"/>
            <path id="Path_7301" data-name="Path 7301" d="M877.182,571.434l11.68,1.966s-4.194,21.727-9.069,40.187l-5.881.172Z" transform="translate(-820.375 -536.427)" fill="#2b295e"/>
            <path id="Path_7302" data-name="Path 7302" d="M563.982,510.543a1.082,1.082,0,1,0-1.678.5l-1.157,3.314s.695,0,.812-.237.1-.8.336-1.011a1.067,1.067,0,0,0,.333-.8c.01-.326.35-.555.441-.766a.826.826,0,0,0,.045-.285,1.082,1.082,0,0,0,.869-.714m-.762-1.129a.229.229,0,1,1-.292.141.229.229,0,0,1,.292-.141" transform="translate(-526.77 -477.916)" fill="#cc7630"/>
            <path id="Path_7303" data-name="Path 7303" d="M584.519,489.125a.986.986,0,1,1,.931-.661.983.983,0,0,1-.931.661m0-1.9a.912.912,0,1,0,.3.051.911.911,0,0,0-.3-.051" transform="translate(-547.784 -457.308)" fill="#cc7630"/>
            <path id="Path_7304" data-name="Path 7304" d="M1087.061,1253.368l-.68,2.185h-6.743s1.725-2.948,7.423-2.185" transform="translate(-1013.498 -1176.467)" fill="#221e50"/>
            <path id="Path_7305" data-name="Path 7305" d="M970,625.032s-2.735-34.846-6.132-41.271l-9.578-.046.168,6.044s.522.118,1.032,1.16l8.739,34.044Z" transform="translate(-895.828 -547.957)" fill="#333380"/>
            <path id="Path_7306" data-name="Path 7306" d="M1043.256,623.678A5.014,5.014,0,0,1,1039,621.51l.136-.08a8.433,8.433,0,0,0,1.985,1.668,5.251,5.251,0,0,0,2.137.581" transform="translate(-975.348 -583.36)" fill="#221e50"/>
            <path id="Path_7307" data-name="Path 7307" d="M1109.4,725.752c-.056-3.161-.291-6.883-.726-10.735-.067-.589-.139-1.194-.214-1.8-.084-.667-.172-1.342-.263-2.006a3.059,3.059,0,0,0-.241-.724,2.951,2.951,0,0,1-.224-.657c-.364-2.522-.807-4.813-1.2-6.835q-.153-.8-.3-1.558c-.869-4.6-1.345-7.209-1.348-7.235,0,.026.33,2.647,1.2,7.253q.144.764.3,1.559c.39,2.02.831,4.309,1.2,6.827a3.071,3.071,0,0,0,.236.7,2.938,2.938,0,0,1,.229.677c.091.663.179,1.338.263,2,.075.6.147,1.209.214,1.8.435,3.846.779,7.584.835,10.739Z" transform="translate(-1037.201 -651.675)" fill="#2b295e"/>
            <path id="Path_7308" data-name="Path 7308" d="M966.814,113.689a35.674,35.674,0,0,1,.732,4.06s2.131,1.842,3.017,1.674c.77-.145,1.667-2.59,1.667-2.59a15.191,15.191,0,0,1-1.687-4.635Z" transform="translate(-907.586 -105.324)" fill="#d29398"/>
            <path id="Path_7309" data-name="Path 7309" d="M947.052,50.9s4.253.893,4.768-1.764,1.411-4.331-1.282-5.013-3.419.229-3.807,1.074-.772,5.4.321,5.7" transform="translate(-888.362 -41.199)" fill="#e3aeb2"/>
            <path id="Path_7310" data-name="Path 7310" d="M950.148,7.941a3.876,3.876,0,0,0-3.578-4.108C942.733,3.339,944.971,0,948.337,0c0,0-.549,1.216,1.481,1.753,4.262,1.126.806,5.685.329,6.188" transform="translate(-886.691 0)" fill="#555ca1"/>
            <path id="Path_7311" data-name="Path 7311" d="M592.194,462.131l-1.225-.273a3.1,3.1,0,0,0-3.891.233s-.768.754-.02,1.04.509.079,1.553.5a2.911,2.911,0,0,0,2.833-.151l1.524.011Z" transform="translate(-550.786 -433.015)" fill="#e3aeb2"/>
            <path id="Path_7312" data-name="Path 7312" d="M688.347,201.282c-.043-1.449-.108-2.912-.183-4.307-.254-4.7-.63-8.624-.729-8.646a21.586,21.586,0,0,0-3.084-.468,7.5,7.5,0,0,1-3.2,1.188,1.882,1.882,0,0,1-1.582-.983c-.464.075-.9.162-1.313.258a13.447,13.447,0,0,0-4.133,1.465c-.787.554-3.188,7.133-6.21,13.554,0,0-2.29.378-3.886.752-1.315.308-3.819,1.049-3.819,1.049l-.036,1.2-.02.649a16.835,16.835,0,0,0,5.325.58l.125-.012.058-.006.13-.016c3.19-.406,6.548-1.007,6.548-1.007l2.444-3.994a53.173,53.173,0,0,0,1.212,8.884c.65,1.8,1.347,1.946,2.791,2.141,6.512.876,9.346-.21,9.413-.234,1.085-.392.322-6.419.153-12.043" transform="translate(-619.707 -176.352)" fill="#555ca3"/>
            <path id="Path_7313" data-name="Path 7313" d="M1071.917,326.055c-1.042.476-3.074,1.216-3.161-.192-.117-1.9,1.431-4.964,2.044-5.081.358-.068.706.489.933.966.075,1.4.14,2.858.183,4.307" transform="translate(-1003.277 -301.125)" fill="#4f549e"/>
            <path id="Path_7314" data-name="Path 7314" d="M675.077,363.842l-2.742,4.483s-3.358.6-6.548,1.007l-.13.016-.058.006-.125.012a16.839,16.839,0,0,1-5.325-.58l.02-.649c3.169-.509,10.838-.894,11.41-1.2.714-.378,2.77-7.009,3.19-6.715.3.213.322,2.389.308,3.617" transform="translate(-619.707 -338.148)" fill="#4f549e"/>
            <rect id="Rectangle_1399" data-name="Rectangle 1399" width="9.495" height="12.637" transform="matrix(0.914, -0.405, 0.405, 0.914, 59.427, 26.605)" fill="#d05c2b"/>
            <path id="Path_7315" data-name="Path 7315" d="M993.005,501.5l-.31.386a3.115,3.115,0,0,0-3.816.906s-.63.88.161,1.034.518-.01,1.627.23a2.929,2.929,0,0,0,2.781-.641l.568-.7Z" transform="translate(-928.076 -470.775)" fill="#e3aeb2"/>
            <path id="Path_7316" data-name="Path 7316" d="M1054.408,187.861s4.429.036,5.021.474,6.511,10.249,6.61,14.016a27.431,27.431,0,0,1-10.381,6.157l-1.343-1.358s5.057-5.115,7.469-6.049c0,0-3.99-4.049-4.867-6.23s-2.508-7.009-2.508-7.009" transform="translate(-989.725 -176.352)" fill="#555ca3"/>
          </g>
        </g>
      </g>
    </g>
    <path id="Path_7617" data-name="Path 7617" d="M0,0H271V1H0Z" transform="translate(2685 -67.709)" opacity="0.446"/>
    <g id="Group_9754" data-name="Group 9754" transform="translate(2880.64 -86.178)" opacity="0.3">
      <g id="Group_9753" data-name="Group 9753">
        <g id="Group_9752" data-name="Group 9752" clip-path="url(#clip-path-8)">
          <path id="Path_7596" data-name="Path 7596" d="M426.317,135.493c9.308-.209,19.755-.211,29.063,0-9.308.211-19.755.209-29.063,0" transform="translate(-426.317 -135.336)" fill="#9b3448"/>
        </g>
      </g>
    </g>
    <g id="Group_9757" data-name="Group 9757" transform="translate(2880.64 -83.552)" opacity="0.3">
      <g id="Group_9756" data-name="Group 9756">
        <g id="Group_9755" data-name="Group 9755" clip-path="url(#clip-path-8)">
          <path id="Path_7597" data-name="Path 7597" d="M426.317,141.217c9.308-.209,19.755-.211,29.063,0-9.308.211-19.755.209-29.063,0" transform="translate(-426.317 -141.059)" fill="#9b3448"/>
        </g>
      </g>
    </g>
    <g id="Group_9760" data-name="Group 9760" transform="translate(2880.64 -80.925)" opacity="0.3">
      <g id="Group_9759" data-name="Group 9759">
        <g id="Group_9758" data-name="Group 9758" clip-path="url(#clip-path-8)">
          <path id="Path_7598" data-name="Path 7598" d="M426.317,146.94c9.308-.209,19.755-.211,29.063,0-9.308.211-19.755.209-29.063,0" transform="translate(-426.317 -146.783)" fill="#9b3448"/>
        </g>
      </g>
    </g>
    <g id="Group_9763" data-name="Group 9763" transform="translate(2880.64 -78.299)" opacity="0.3">
      <g id="Group_9762" data-name="Group 9762">
        <g id="Group_9761" data-name="Group 9761" clip-path="url(#clip-path-8)">
          <path id="Path_7599" data-name="Path 7599" d="M426.317,152.663c9.308-.209,19.755-.211,29.063,0-9.308.211-19.755.21-29.063,0" transform="translate(-426.317 -152.506)" fill="#9b3448"/>
        </g>
      </g>
    </g>
    <g id="Group_9766" data-name="Group 9766" transform="translate(2880.64 -75.672)" opacity="0.3">
      <g id="Group_9765" data-name="Group 9765">
        <g id="Group_9764" data-name="Group 9764" clip-path="url(#clip-path-8)">
          <path id="Path_7600" data-name="Path 7600" d="M426.317,158.387c9.308-.209,19.755-.211,29.063,0-9.308.211-19.755.209-29.063,0" transform="translate(-426.317 -158.229)" fill="#9b3448"/>
        </g>
      </g>
    </g>
    <g id="Group_9769" data-name="Group 9769" transform="translate(2880.64 -73.046)" opacity="0.3">
      <g id="Group_9768" data-name="Group 9768">
        <g id="Group_9767" data-name="Group 9767" clip-path="url(#clip-path-8)">
          <path id="Path_7601" data-name="Path 7601" d="M426.317,164.11c9.308-.209,19.755-.211,29.063,0-9.308.211-19.755.209-29.063,0" transform="translate(-426.317 -163.952)" fill="#9b3448"/>
        </g>
      </g>
    </g>
    <g id="Group_9772" data-name="Group 9772" transform="translate(2880.64 -70.419)" opacity="0.3">
      <g id="Group_9771" data-name="Group 9771">
        <g id="Group_9770" data-name="Group 9770" clip-path="url(#clip-path-8)">
          <path id="Path_7602" data-name="Path 7602" d="M426.317,169.833c9.308-.209,19.755-.211,29.063,0-9.308.211-19.755.209-29.063,0" transform="translate(-426.317 -169.676)" fill="#9b3448"/>
        </g>
      </g>
    </g>
  </g>
</svg>
